<svg xmlns="http://www.w3.org/2000/svg" width="35.481" height="33.277" viewBox="0 0 35.481 33.277"><defs><style>.a{fill:none;stroke:#4699b7;stroke-width:2px;}</style></defs><g transform="translate(1 -14.964)"><path class="a" d="M19.457,16.1a1.113,1.113,0,0,0-1.181.134L7.419,24.92H2.232A2.236,2.236,0,0,0,0,27.152V36.08a2.234,2.234,0,0,0,2.232,2.232H7.419L18.274,47a1.118,1.118,0,0,0,1.183.132,1.114,1.114,0,0,0,.632-1V17.108A1.12,1.12,0,0,0,19.457,16.1Z"/><path class="a" d="M343.652,122.574a1.117,1.117,0,0,0-1.569,1.589,8.9,8.9,0,0,1,0,12.607,1.115,1.115,0,1,0,1.569,1.585,11.133,11.133,0,0,0,0-15.781Z" transform="translate(-317.914 -98.85)"/><path class="a" d="M388.77,77.449a1.117,1.117,0,1,0-1.574,1.585,13.318,13.318,0,0,1,0,18.9,1.117,1.117,0,0,0,1.574,1.585,15.555,15.555,0,0,0,0-22.073Z" transform="translate(-359.883 -56.87)"/></g></svg>